%TF.GenerationSoftware,Altium Limited,Altium Designer,25.3.3 (18)*%
G04 Layer_Physical_Order=2*
G04 Layer_Color=16711680*
%FSLAX45Y45*%
%MOMM*%
%TF.SameCoordinates,1FB2B9E7-3E12-4CFE-8A3D-C156B5A0EB04*%
%TF.FilePolarity,Positive*%
%TF.FileFunction,Copper,L2,Bot,Signal*%
%TF.Part,Single*%
G01*
G75*
%TA.AperFunction,Conductor*%
%ADD10C,0.30000*%
%ADD27C,0.50000*%
%TA.AperFunction,ComponentPad*%
%ADD28C,0.75000*%
%ADD29C,1.20000*%
%ADD30R,1.20000X1.20000*%
%TA.AperFunction,ViaPad*%
%ADD31C,0.70000*%
G36*
X5887079Y2885839D02*
X5933304Y2866692D01*
X5974905Y2838894D01*
X5992595Y2821205D01*
X5992594Y2821205D01*
X5992595Y2821205D01*
X5996205Y2817595D01*
X6013894Y2799905D01*
X6041692Y2758304D01*
X6060839Y2712079D01*
X6070600Y2663006D01*
Y2637990D01*
Y283010D01*
Y257993D01*
X6060839Y208921D01*
X6041692Y162696D01*
X6013894Y121095D01*
X5996205Y103405D01*
X5996205Y103405D01*
X5974905Y82105D01*
X5933304Y54308D01*
X5887079Y35161D01*
X5838006Y25400D01*
X1944342D01*
X1896953Y34826D01*
X1852314Y53316D01*
X1812140Y80159D01*
X1795058Y97242D01*
Y97242D01*
X1778000Y114300D01*
X1768941Y123359D01*
X1754705Y144665D01*
X1744899Y168338D01*
X1739900Y193470D01*
Y206282D01*
Y667839D01*
X1739691Y672089D01*
X1738033Y680426D01*
X1734780Y688279D01*
X1730057Y695347D01*
X1727200Y698500D01*
X1727200Y698500D01*
X1674595Y751105D01*
X1656125Y767845D01*
X1614724Y795508D01*
X1568722Y814563D01*
X1519886Y824277D01*
X1494990Y825500D01*
X207193D01*
X158121Y835261D01*
X111896Y854408D01*
X70295Y882205D01*
X35080Y917420D01*
X30335Y924522D01*
X27066Y932413D01*
X25400Y940790D01*
Y1600200D01*
Y2599890D01*
Y2624906D01*
X35161Y2673979D01*
X54308Y2720204D01*
X82105Y2761805D01*
X99795Y2779495D01*
Y2779495D01*
X159195Y2838894D01*
X200796Y2866692D01*
X247021Y2885839D01*
X296093Y2895600D01*
X5838006D01*
X5887079Y2885839D01*
D02*
G37*
%LPC*%
G36*
X2222500Y2562016D02*
Y2514600D01*
X2269916D01*
X2261005Y2536114D01*
X2244014Y2553105D01*
X2222500Y2562016D01*
D02*
G37*
G36*
X2197100D02*
X2175586Y2553105D01*
X2158595Y2536114D01*
X2149684Y2514600D01*
X2197100D01*
Y2562016D01*
D02*
G37*
G36*
X3482100Y2521616D02*
Y2474200D01*
X3529516D01*
X3520605Y2495714D01*
X3503614Y2512705D01*
X3482100Y2521616D01*
D02*
G37*
G36*
X3456700D02*
X3435186Y2512705D01*
X3418195Y2495714D01*
X3409284Y2474200D01*
X3456700D01*
Y2521616D01*
D02*
G37*
G36*
X2269916Y2489200D02*
X2222500D01*
Y2441784D01*
X2244014Y2450695D01*
X2261005Y2467686D01*
X2269916Y2489200D01*
D02*
G37*
G36*
X2197100D02*
X2149684D01*
X2158595Y2467686D01*
X2175586Y2450695D01*
X2197100Y2441784D01*
Y2489200D01*
D02*
G37*
G36*
X3529516Y2448800D02*
X3482100D01*
Y2401384D01*
X3503614Y2410295D01*
X3520605Y2427286D01*
X3529516Y2448800D01*
D02*
G37*
G36*
X3456700D02*
X3409284D01*
X3418195Y2427286D01*
X3435186Y2410295D01*
X3456700Y2401384D01*
Y2448800D01*
D02*
G37*
G36*
X2876860Y2483460D02*
X2736540D01*
Y2343140D01*
X2876860D01*
Y2483460D01*
D02*
G37*
G36*
X1752500Y2542397D02*
X1574700D01*
X1566924Y2539176D01*
X1563703Y2531400D01*
Y2264700D01*
X1566924Y2256924D01*
X1574700Y2253703D01*
X1752500D01*
X1760276Y2256924D01*
X1763497Y2264700D01*
Y2531400D01*
X1760276Y2539176D01*
X1752500Y2542397D01*
D02*
G37*
G36*
X888900D02*
X711100D01*
X703324Y2539176D01*
X700103Y2531400D01*
Y2264700D01*
X703324Y2256924D01*
X711100Y2253703D01*
X888900D01*
X896676Y2256924D01*
X899897Y2264700D01*
Y2531400D01*
X896676Y2539176D01*
X888900Y2542397D01*
D02*
G37*
G36*
X2374900Y2041316D02*
Y1993900D01*
X2422316D01*
X2413405Y2015414D01*
X2396414Y2032405D01*
X2374900Y2041316D01*
D02*
G37*
G36*
X2349500D02*
X2327986Y2032405D01*
X2310995Y2015414D01*
X2302084Y1993900D01*
X2349500D01*
Y2041316D01*
D02*
G37*
G36*
X2422316Y1968500D02*
X2374900D01*
Y1921084D01*
X2396414Y1929995D01*
X2413405Y1946986D01*
X2422316Y1968500D01*
D02*
G37*
G36*
X2349500D02*
X2302084D01*
X2310995Y1946986D01*
X2327986Y1929995D01*
X2349500Y1921084D01*
Y1968500D01*
D02*
G37*
G36*
X3187700Y1952416D02*
Y1905000D01*
X3235116D01*
X3226205Y1926514D01*
X3209214Y1943505D01*
X3187700Y1952416D01*
D02*
G37*
G36*
X3162300D02*
X3140786Y1943505D01*
X3123795Y1926514D01*
X3114884Y1905000D01*
X3162300D01*
Y1952416D01*
D02*
G37*
G36*
X1752500Y2135997D02*
X1574700D01*
X1566924Y2132776D01*
X1563703Y2125000D01*
Y1858300D01*
X1566924Y1850524D01*
X1574700Y1847303D01*
X1752500D01*
X1760276Y1850524D01*
X1763497Y1858300D01*
Y2125000D01*
X1760276Y2132776D01*
X1752500Y2135997D01*
D02*
G37*
G36*
X888900D02*
X711100D01*
X703324Y2132776D01*
X700103Y2125000D01*
Y1858300D01*
X703324Y1850524D01*
X711100Y1847303D01*
X888900D01*
X896676Y1850524D01*
X899897Y1858300D01*
Y2125000D01*
X896676Y2132776D01*
X888900Y2135997D01*
D02*
G37*
G36*
X3235116Y1879600D02*
X3187700D01*
Y1832184D01*
X3209214Y1841095D01*
X3226205Y1858086D01*
X3235116Y1879600D01*
D02*
G37*
G36*
X3162300D02*
X3114884D01*
X3123795Y1858086D01*
X3140786Y1841095D01*
X3162300Y1832184D01*
Y1879600D01*
D02*
G37*
G36*
X2815937Y1720860D02*
X2797463D01*
X2779619Y1716079D01*
X2763621Y1706842D01*
X2750558Y1693779D01*
X2741321Y1677781D01*
X2736540Y1659937D01*
Y1641463D01*
X2741321Y1623619D01*
X2750558Y1607621D01*
X2763621Y1594558D01*
X2779619Y1585321D01*
X2797463Y1580540D01*
X2815937D01*
X2833781Y1585321D01*
X2849779Y1594558D01*
X2862842Y1607621D01*
X2872079Y1623619D01*
X2876860Y1641463D01*
Y1659937D01*
X2872079Y1677781D01*
X2862842Y1693779D01*
X2849779Y1706842D01*
X2833781Y1716079D01*
X2815937Y1720860D01*
D02*
G37*
G36*
X5981700Y1495216D02*
Y1447800D01*
X6029116D01*
X6020205Y1469314D01*
X6003214Y1486305D01*
X5981700Y1495216D01*
D02*
G37*
G36*
X5956300D02*
X5934786Y1486305D01*
X5917795Y1469314D01*
X5908884Y1447800D01*
X5956300D01*
Y1495216D01*
D02*
G37*
G36*
X3835400D02*
Y1447800D01*
X3882816D01*
X3873905Y1469314D01*
X3856914Y1486305D01*
X3835400Y1495216D01*
D02*
G37*
G36*
X3810000D02*
X3788486Y1486305D01*
X3771495Y1469314D01*
X3762584Y1447800D01*
X3810000D01*
Y1495216D01*
D02*
G37*
G36*
X6029116Y1422400D02*
X5981700D01*
Y1374984D01*
X6003214Y1383895D01*
X6020205Y1400886D01*
X6029116Y1422400D01*
D02*
G37*
G36*
X5956300D02*
X5908884D01*
X5917795Y1400886D01*
X5934786Y1383895D01*
X5956300Y1374984D01*
Y1422400D01*
D02*
G37*
G36*
X3882816D02*
X3835400D01*
Y1374984D01*
X3856914Y1383895D01*
X3873905Y1400886D01*
X3882816Y1422400D01*
D02*
G37*
G36*
X3810000D02*
X3762584D01*
X3771495Y1400886D01*
X3788486Y1383895D01*
X3810000Y1374984D01*
Y1422400D01*
D02*
G37*
G36*
X2730500Y1317416D02*
Y1270000D01*
X2777916D01*
X2769005Y1291514D01*
X2752014Y1308505D01*
X2730500Y1317416D01*
D02*
G37*
G36*
X2705100D02*
X2683586Y1308505D01*
X2666595Y1291514D01*
X2657684Y1270000D01*
X2705100D01*
Y1317416D01*
D02*
G37*
G36*
X2777916Y1244600D02*
X2730500D01*
Y1197184D01*
X2752014Y1206095D01*
X2769005Y1223086D01*
X2777916Y1244600D01*
D02*
G37*
G36*
X2705100D02*
X2657684D01*
X2666595Y1223086D01*
X2683586Y1206095D01*
X2705100Y1197184D01*
Y1244600D01*
D02*
G37*
G36*
X3412583Y1696160D02*
X3394617D01*
X3378019Y1689285D01*
X3365315Y1676581D01*
X3358440Y1659983D01*
Y1642017D01*
X3359563Y1639305D01*
X3330860Y1610603D01*
X3325300Y1602280D01*
X3323347Y1592463D01*
Y1568926D01*
X3263409Y1508988D01*
X3210535D01*
X3200717Y1507035D01*
X3192395Y1501474D01*
X3045084Y1354162D01*
X3039523Y1345840D01*
X3037570Y1336023D01*
Y1295849D01*
X2732574Y990853D01*
X2527413D01*
X2514781Y1003485D01*
X2498183Y1010360D01*
X2480217D01*
X2463619Y1003485D01*
X2450915Y990781D01*
X2444040Y974183D01*
Y956217D01*
X2450915Y939619D01*
X2463619Y926915D01*
X2480217Y920040D01*
X2498183D01*
X2514781Y926915D01*
X2527413Y939547D01*
X2743200D01*
X2753017Y941500D01*
X2761339Y947061D01*
X3081362Y1267084D01*
X3086923Y1275406D01*
X3088876Y1285223D01*
Y1325397D01*
X3221160Y1457682D01*
X3274035D01*
X3283852Y1459634D01*
X3292174Y1465195D01*
X3367139Y1540160D01*
X3372700Y1548483D01*
X3374653Y1558300D01*
Y1581837D01*
X3398656Y1605840D01*
X3412583D01*
X3429181Y1612715D01*
X3441885Y1625419D01*
X3448760Y1642017D01*
Y1659983D01*
X3441885Y1676581D01*
X3429181Y1689285D01*
X3412583Y1696160D01*
D02*
G37*
G36*
X3467100Y1038016D02*
Y990600D01*
X3514516D01*
X3505605Y1012114D01*
X3488614Y1029105D01*
X3467100Y1038016D01*
D02*
G37*
G36*
X3441700D02*
X3420186Y1029105D01*
X3403195Y1012114D01*
X3394284Y990600D01*
X3441700D01*
Y1038016D01*
D02*
G37*
G36*
X3514516Y965200D02*
X3467100D01*
Y917784D01*
X3488614Y926695D01*
X3505605Y943686D01*
X3514516Y965200D01*
D02*
G37*
G36*
X3441700D02*
X3394284D01*
X3403195Y943686D01*
X3420186Y926695D01*
X3441700Y917784D01*
Y965200D01*
D02*
G37*
G36*
X3501483Y1391360D02*
X3483517D01*
X3466919Y1384485D01*
X3454215Y1371781D01*
X3447340Y1355183D01*
Y1351738D01*
X3263951Y1168349D01*
X3256180Y1156719D01*
X3253451Y1143000D01*
Y904317D01*
X3251015Y901881D01*
X3244140Y885283D01*
Y867317D01*
X3251015Y850719D01*
X3263719Y838015D01*
X3280317Y831140D01*
X3298283D01*
X3314881Y838015D01*
X3327585Y850719D01*
X3334460Y867317D01*
Y885283D01*
X3327585Y901881D01*
X3325149Y904317D01*
Y1128151D01*
X3498038Y1301040D01*
X3501483D01*
X3518081Y1307915D01*
X3530785Y1320619D01*
X3537660Y1337217D01*
Y1355183D01*
X3530785Y1371781D01*
X3518081Y1384485D01*
X3501483Y1391360D01*
D02*
G37*
G36*
X2387600Y669716D02*
Y622300D01*
X2435016D01*
X2426105Y643814D01*
X2409114Y660805D01*
X2387600Y669716D01*
D02*
G37*
G36*
X2362200D02*
X2340686Y660805D01*
X2323695Y643814D01*
X2314784Y622300D01*
X2362200D01*
Y669716D01*
D02*
G37*
G36*
X2600280Y658460D02*
X2581320D01*
X2563803Y651204D01*
X2550396Y637797D01*
X2543140Y620280D01*
Y601320D01*
X2550396Y583803D01*
X2563803Y570396D01*
X2581320Y563140D01*
X2600280D01*
X2617797Y570396D01*
X2631204Y583803D01*
X2638460Y601320D01*
Y620280D01*
X2631204Y637797D01*
X2617797Y651204D01*
X2600280Y658460D01*
D02*
G37*
G36*
X2435016Y596900D02*
X2387600D01*
Y549484D01*
X2409114Y558395D01*
X2426105Y575386D01*
X2435016Y596900D01*
D02*
G37*
G36*
X2362200D02*
X2314784D01*
X2323695Y575386D01*
X2340686Y558395D01*
X2362200Y549484D01*
Y596900D01*
D02*
G37*
G36*
X3302000Y453816D02*
Y406400D01*
X3349416D01*
X3340505Y427914D01*
X3323514Y444905D01*
X3302000Y453816D01*
D02*
G37*
G36*
X3276600D02*
X3255086Y444905D01*
X3238095Y427914D01*
X3229184Y406400D01*
X3276600D01*
Y453816D01*
D02*
G37*
G36*
X2971800D02*
Y406400D01*
X3019216D01*
X3010305Y427914D01*
X2993314Y444905D01*
X2971800Y453816D01*
D02*
G37*
G36*
X2946400D02*
X2924886Y444905D01*
X2907895Y427914D01*
X2898984Y406400D01*
X2946400D01*
Y453816D01*
D02*
G37*
G36*
X3349416Y381000D02*
X3302000D01*
Y333584D01*
X3323514Y342495D01*
X3340505Y359486D01*
X3349416Y381000D01*
D02*
G37*
G36*
X3276600D02*
X3229184D01*
X3238095Y359486D01*
X3255086Y342495D01*
X3276600Y333584D01*
Y381000D01*
D02*
G37*
G36*
X3019216D02*
X2971800D01*
Y333584D01*
X2993314Y342495D01*
X3010305Y359486D01*
X3019216Y381000D01*
D02*
G37*
G36*
X2946400D02*
X2898984D01*
X2907895Y359486D01*
X2924886Y342495D01*
X2946400Y333584D01*
Y381000D01*
D02*
G37*
%LPD*%
D10*
X3349000Y1592463D02*
X3403600Y1647063D01*
Y1651000D01*
X3349000Y1558300D02*
Y1592463D01*
X3274035Y1483335D02*
X3349000Y1558300D01*
X3210535Y1483335D02*
X3274035D01*
X3063223Y1336023D02*
X3210535Y1483335D01*
X3063223Y1285223D02*
Y1336023D01*
X2743200Y965200D02*
X3063223Y1285223D01*
X2489200Y965200D02*
X2743200D01*
D27*
X3289300Y1143000D02*
X3492500Y1346200D01*
X3289300Y876300D02*
Y1143000D01*
D28*
X2590800Y610800D02*
D03*
D29*
X2806700Y1650700D02*
D03*
D30*
Y2413300D02*
D03*
D31*
X3403600Y1651000D02*
D03*
X2489200Y965200D02*
D03*
X3289300Y876300D02*
D03*
X3492500Y1346200D02*
D03*
X3175000Y1892300D02*
D03*
X5969000Y1435100D02*
D03*
X2374900Y609600D02*
D03*
X3822700Y1435100D02*
D03*
X2717800Y1257300D02*
D03*
X3469400Y2461500D02*
D03*
X2209800Y2501900D02*
D03*
X2362200Y1981200D02*
D03*
X3454400Y977900D02*
D03*
X2959100Y393700D02*
D03*
X3289300D02*
D03*
%TF.MD5,6eee398ed2cd97faa1ee987e2458ed3a*%
M02*
