%TF.GenerationSoftware,Altium Limited,Altium Designer,25.3.3 (18)*%
G04 Layer_Physical_Order=1*
G04 Layer_Color=255*
%FSLAX45Y45*%
%MOMM*%
%TF.SameCoordinates,1FB2B9E7-3E12-4CFE-8A3D-C156B5A0EB04*%
%TF.FilePolarity,Positive*%
%TF.FileFunction,Copper,L1,Top,Signal*%
%TF.Part,Single*%
G01*
G75*
%TA.AperFunction,Conductor*%
%ADD10C,0.30000*%
%TA.AperFunction,SMDPad,CuDef*%
G04:AMPARAMS|DCode=11|XSize=3mm|YSize=2mm|CornerRadius=0.03mm|HoleSize=0mm|Usage=FLASHONLY|Rotation=0.000|XOffset=0mm|YOffset=0mm|HoleType=Round|Shape=RoundedRectangle|*
%AMROUNDEDRECTD11*
21,1,3.00000,1.94000,0,0,0.0*
21,1,2.94000,2.00000,0,0,0.0*
1,1,0.06000,1.47000,-0.97000*
1,1,0.06000,-1.47000,-0.97000*
1,1,0.06000,-1.47000,0.97000*
1,1,0.06000,1.47000,0.97000*
%
%ADD11ROUNDEDRECTD11*%
G04:AMPARAMS|DCode=12|XSize=2.3mm|YSize=1.3mm|CornerRadius=0.026mm|HoleSize=0mm|Usage=FLASHONLY|Rotation=0.000|XOffset=0mm|YOffset=0mm|HoleType=Round|Shape=RoundedRectangle|*
%AMROUNDEDRECTD12*
21,1,2.30000,1.24800,0,0,0.0*
21,1,2.24800,1.30000,0,0,0.0*
1,1,0.05200,1.12400,-0.62400*
1,1,0.05200,-1.12400,-0.62400*
1,1,0.05200,-1.12400,0.62400*
1,1,0.05200,1.12400,0.62400*
%
%ADD12ROUNDEDRECTD12*%
G04:AMPARAMS|DCode=13|XSize=1.3mm|YSize=2.3mm|CornerRadius=0.026mm|HoleSize=0mm|Usage=FLASHONLY|Rotation=0.000|XOffset=0mm|YOffset=0mm|HoleType=Round|Shape=RoundedRectangle|*
%AMROUNDEDRECTD13*
21,1,1.30000,2.24800,0,0,0.0*
21,1,1.24800,2.30000,0,0,0.0*
1,1,0.05200,0.62400,-1.12400*
1,1,0.05200,-0.62400,-1.12400*
1,1,0.05200,-0.62400,1.12400*
1,1,0.05200,0.62400,1.12400*
%
%ADD13ROUNDEDRECTD13*%
%ADD14C,1.50000*%
G04:AMPARAMS|DCode=15|XSize=1mm|YSize=1.42mm|CornerRadius=0.125mm|HoleSize=0mm|Usage=FLASHONLY|Rotation=180.000|XOffset=0mm|YOffset=0mm|HoleType=Round|Shape=RoundedRectangle|*
%AMROUNDEDRECTD15*
21,1,1.00000,1.17000,0,0,180.0*
21,1,0.75000,1.42000,0,0,180.0*
1,1,0.25000,-0.37500,0.58500*
1,1,0.25000,0.37500,0.58500*
1,1,0.25000,0.37500,-0.58500*
1,1,0.25000,-0.37500,-0.58500*
%
%ADD15ROUNDEDRECTD15*%
G04:AMPARAMS|DCode=16|XSize=1mm|YSize=1.42mm|CornerRadius=0.125mm|HoleSize=0mm|Usage=FLASHONLY|Rotation=270.000|XOffset=0mm|YOffset=0mm|HoleType=Round|Shape=RoundedRectangle|*
%AMROUNDEDRECTD16*
21,1,1.00000,1.17000,0,0,270.0*
21,1,0.75000,1.42000,0,0,270.0*
1,1,0.25000,-0.58500,-0.37500*
1,1,0.25000,-0.58500,0.37500*
1,1,0.25000,0.58500,0.37500*
1,1,0.25000,0.58500,-0.37500*
%
%ADD16ROUNDEDRECTD16*%
%ADD17R,1.32080X0.55880*%
%ADD18C,0.65000*%
%ADD19C,0.60000*%
%ADD20C,0.46000*%
%ADD21R,0.25000X0.25000*%
%ADD22R,1.50000X1.30000*%
%ADD23R,0.30000X1.07500*%
%ADD24R,1.30000X1.50000*%
%ADD25C,17.80000*%
%ADD26R,5.10000X2.50000*%
%TA.AperFunction,Conductor*%
%ADD27C,0.50000*%
%TA.AperFunction,ComponentPad*%
%ADD28C,0.75000*%
%ADD29C,1.20000*%
%ADD30R,1.20000X1.20000*%
%TA.AperFunction,ViaPad*%
%ADD31C,0.70000*%
D10*
X2640629Y572251D02*
G03*
X2653800Y610800I-49829J38549D01*
G01*
X2639729Y571114D02*
G03*
X2640629Y572251I-48929J39686D01*
G01*
X2630486Y561871D02*
G03*
X2639729Y571114I-39686J48929D01*
G01*
X2590800Y547800D02*
G03*
X2630486Y561871I0J63000D01*
G01*
X2653800Y610800D02*
G03*
X2590800Y547800I-63000J0D01*
G01*
X3299069Y1625600D02*
X3329069D01*
X3346815Y1643346D01*
X3395946D02*
X3403600Y1651000D01*
X3346815Y1643346D02*
X3395946D01*
X3225000Y1699669D02*
X3299069Y1625600D01*
X3225000Y1699669D02*
Y1754000D01*
X3481676Y1346200D02*
X3492500D01*
X3199579Y1367490D02*
X3460386D01*
X3481676Y1346200D01*
X3175000Y1392069D02*
X3199579Y1367490D01*
X3302000Y1100300D02*
X3424400D01*
X3530600Y1206500D01*
X3614900D01*
X3300000Y1446400D02*
X3309240Y1437160D01*
X3300000Y1446400D02*
X3325000D01*
X3275000D02*
X3300000D01*
X3325000D02*
Y1485150D01*
X3309240Y1437160D02*
X3592240D01*
X3801900Y1227500D01*
Y1206500D02*
Y1227500D01*
X3949700Y1595600D02*
X3975100Y1570200D01*
Y1400700D02*
Y1570200D01*
X3801900Y1227500D02*
X3975100Y1400700D01*
X3175000Y1392069D02*
Y1446400D01*
Y1754000D02*
Y1892300D01*
X3378975Y1846725D02*
X3417725D01*
X3471700Y1900700D02*
Y2006600D01*
X3417725Y1846725D02*
X3471700Y1900700D01*
Y2006600D02*
Y2027600D01*
X2489200Y825900D02*
Y939800D01*
Y825900D02*
X2494300Y820800D01*
X2374900Y609600D02*
X2527300D01*
X2591800Y546800D02*
X2692300D01*
X2640629Y572015D02*
X2653800Y585185D01*
Y610800D01*
X2640629Y572015D02*
Y572251D01*
X2639729Y571114D02*
X2640629Y572015D01*
X2630486Y561871D02*
X2639729Y571114D01*
X2616415Y547800D02*
X2630486Y561871D01*
X2590800Y547800D02*
X2616415D01*
X2590800D02*
X2591800Y546800D01*
X382800Y2235200D02*
X432800D01*
X517800Y2320200D01*
Y2373681D01*
X746179Y2602060D01*
X2481340D01*
X2571500Y2511900D01*
Y2501900D02*
Y2511900D01*
Y2491900D02*
X2650100Y2413300D01*
X2806700D01*
X2570000Y2500400D02*
X2571500Y2501900D01*
X2570000Y2235200D02*
Y2500400D01*
X2806700Y2413300D02*
X3075000Y2145000D01*
Y1754000D02*
Y2145000D01*
X2806700Y1650700D02*
X2910000Y1754000D01*
X3025000D01*
X2730500Y1016000D02*
X2889500D01*
X2578100Y1168400D02*
Y1358900D01*
Y1168400D02*
X2730500Y1016000D01*
X3325000Y1792750D02*
X3378975Y1846725D01*
X3325000Y1754000D02*
Y1792750D01*
X3125000Y1625200D02*
Y1754000D01*
X3075000Y1575200D02*
X3125000Y1625200D01*
X3075000Y1446400D02*
Y1575200D01*
X3025000Y1446400D02*
X3075000D01*
X2665600D02*
X3025000D01*
X2578100Y1358900D02*
X2665600Y1446400D01*
X3125000Y1302800D02*
Y1446400D01*
X3079500Y1257300D02*
X3125000Y1302800D01*
X3109500Y1287300D02*
X3302000D01*
X3079500Y1016000D02*
X3196700D01*
X3281000Y1100300D01*
X3302000D01*
X3731800Y1782600D02*
X3949700D01*
X3727200Y1778000D02*
X3731800Y1782600D01*
X3727200Y1778000D02*
Y1981700D01*
X3708400Y2000500D02*
X3727200Y1981700D01*
X3538700Y1549400D02*
Y1776500D01*
X3537200Y1778000D02*
X3538700Y1776500D01*
X3225000Y1446400D02*
Y1500731D01*
X3273669Y1549400D01*
X3538700D01*
X3658400Y2140500D02*
X3708400Y2190500D01*
X3605600Y2140500D02*
X3658400D01*
X3527700Y2062600D02*
X3605600Y2140500D01*
X3506700Y2062600D02*
X3527700D01*
X3471700Y2027600D02*
X3506700Y2062600D01*
X3275000Y1996900D02*
X3284700Y2006600D01*
X3275000Y1754000D02*
Y1996900D01*
X3284700Y2006600D02*
Y2235200D01*
X382800Y1727200D02*
X432800D01*
X602480Y1557520D01*
Y1226320D02*
Y1557520D01*
Y1226320D02*
X1435100Y393700D01*
X2607308D01*
X2740460Y526852D01*
Y592581D01*
X2692300Y640741D02*
X2740460Y592581D01*
X2692300Y640741D02*
Y710800D01*
X2494300Y820800D02*
Y830271D01*
X382800Y1981200D02*
X432800D01*
X642640Y1771360D01*
Y1429301D02*
Y1771360D01*
Y1429301D02*
X982630Y1089312D01*
X1475747D01*
X1900417Y664641D01*
Y609759D02*
Y664641D01*
Y609759D02*
X1924136Y586040D01*
X2241464D01*
X2414384Y758960D01*
X2528960D01*
X2590800Y820800D01*
D11*
X382800Y2235200D02*
D03*
Y1981200D02*
D03*
Y1727200D02*
D03*
Y1473200D02*
D03*
Y1219200D02*
D03*
Y965200D02*
D03*
Y711200D02*
D03*
X2082800D02*
D03*
Y965200D02*
D03*
Y1219200D02*
D03*
Y1473200D02*
D03*
Y1727200D02*
D03*
Y1981200D02*
D03*
Y2235200D02*
D03*
D12*
X782800Y1503200D02*
D03*
Y1693200D02*
D03*
D13*
X1612800Y548200D02*
D03*
X1802800D02*
D03*
D14*
X1105800Y2058200D02*
D03*
Y2312200D02*
D03*
X1359800Y2058200D02*
D03*
Y2312200D02*
D03*
D15*
X3725700Y1549400D02*
D03*
X3538700D02*
D03*
X3284700Y2006600D02*
D03*
X3471700D02*
D03*
X3284700Y2235200D02*
D03*
X3471700D02*
D03*
X2570000D02*
D03*
X2383000D02*
D03*
X3614900Y1206500D02*
D03*
X3801900D02*
D03*
D16*
X3949700Y1782600D02*
D03*
Y1595600D02*
D03*
X3302000Y1287300D02*
D03*
Y1100300D02*
D03*
D17*
X3837940Y566420D02*
D03*
Y660400D02*
D03*
Y754380D02*
D03*
X3578860D02*
D03*
Y566420D02*
D03*
D18*
X2494300Y820800D02*
D03*
X2687300D02*
D03*
D19*
X2590800D02*
D03*
D20*
X2489300Y710800D02*
D03*
Y546800D02*
D03*
X2692300D02*
D03*
Y710800D02*
D03*
D21*
X2590800Y547800D02*
D03*
D22*
X2959100Y730000D02*
D03*
Y540000D02*
D03*
X3708400Y2190500D02*
D03*
Y2000500D02*
D03*
X3289300Y730000D02*
D03*
Y540000D02*
D03*
D23*
X3025000Y1446400D02*
D03*
X3075000D02*
D03*
X3125000D02*
D03*
X3175000D02*
D03*
X3225000D02*
D03*
X3275000D02*
D03*
X3325000D02*
D03*
Y1754000D02*
D03*
X3275000D02*
D03*
X3225000D02*
D03*
X3175000D02*
D03*
X3125000D02*
D03*
X3075000D02*
D03*
X3025000D02*
D03*
D24*
X2571500Y2501900D02*
D03*
X2381500D02*
D03*
X2889500Y1257300D02*
D03*
X3079500D02*
D03*
Y1016000D02*
D03*
X2889500D02*
D03*
X3537200Y1778000D02*
D03*
X3727200D02*
D03*
X3828800Y977900D02*
D03*
X3638800D02*
D03*
D25*
X5029200Y1449800D02*
D03*
D26*
Y304800D02*
D03*
Y2594800D02*
D03*
D27*
X3289300Y730000D02*
Y876300D01*
X5040073Y1438927D02*
X5965173D01*
X5969000Y1435100D01*
X5029200Y1449800D02*
X5040073Y1438927D01*
X3467100Y2463800D02*
X3471700Y2459200D01*
Y2235200D02*
Y2459200D01*
X2082800Y1981200D02*
X2362200D01*
X2209800Y2501900D02*
X2381500D01*
X2382250Y2235950D02*
X2383000Y2235200D01*
X2382250Y2235950D02*
Y2501150D01*
X2381500Y2501900D02*
X2382250Y2501150D01*
X3616960Y754380D02*
X3619900Y751440D01*
X3918544Y723500D02*
X3939140Y702904D01*
X3918544Y597300D02*
X3939140Y617896D01*
X3696900Y660400D02*
X3837940D01*
X3619900Y737400D02*
X3696900Y660400D01*
X3876040Y754380D02*
X3906920Y723500D01*
Y597300D02*
X3918544D01*
X3906920Y723500D02*
X3918544D01*
X3837940Y754380D02*
X3876040D01*
X3939140Y617896D02*
Y702904D01*
X3876040Y566420D02*
X3906920Y597300D01*
X3619900Y737400D02*
Y751440D01*
X3819000Y1435100D02*
X3822700D01*
X3725700Y1528400D02*
X3819000Y1435100D01*
X3725700Y1528400D02*
Y1549400D01*
X2717800Y1257300D02*
X2889500D01*
X3289300Y393700D02*
Y540000D01*
X2959100Y393700D02*
Y540000D01*
X3454400Y977900D02*
X3638800D01*
Y967900D02*
Y977900D01*
X3578860Y907960D02*
X3638800Y967900D01*
X3578860Y754380D02*
Y907960D01*
Y754380D02*
X3616960D01*
X3395511Y690000D02*
X3429000Y656510D01*
X3329300Y690000D02*
X3395511D01*
X3289300Y730000D02*
X3329300Y690000D01*
X3459480Y566420D02*
X3578860D01*
X3429000Y596900D02*
Y656510D01*
Y596900D02*
X3459480Y566420D01*
X3831740Y754380D02*
X3837940D01*
X3828800Y757320D02*
X3831740Y754380D01*
X3828800Y757320D02*
Y977900D01*
X3837940Y566420D02*
X3876040D01*
X4137660Y304800D01*
X5029200D01*
X3828800Y987900D02*
X4104040Y1263140D01*
Y1833014D01*
X4645986Y2374960D01*
X4679360D01*
X4899200Y2594800D01*
X5029200D01*
X2082800Y1727200D02*
X2132800D01*
X2446115Y1413885D01*
Y1229448D02*
Y1413885D01*
Y1229448D02*
X2687300Y988263D01*
Y820800D02*
Y988263D01*
Y820800D02*
X2778100Y730000D01*
X2959100D01*
X3289300D01*
D28*
X2590800Y610800D02*
D03*
D29*
X2806700Y1650700D02*
D03*
D30*
Y2413300D02*
D03*
D31*
X3403600Y1651000D02*
D03*
X2489200Y965200D02*
D03*
X3289300Y876300D02*
D03*
X3492500Y1346200D02*
D03*
X3175000Y1892300D02*
D03*
X5969000Y1435100D02*
D03*
X2374900Y609600D02*
D03*
X3822700Y1435100D02*
D03*
X2717800Y1257300D02*
D03*
X3469400Y2461500D02*
D03*
X2209800Y2501900D02*
D03*
X2362200Y1981200D02*
D03*
X3454400Y977900D02*
D03*
X2959100Y393700D02*
D03*
X3289300D02*
D03*
%TF.MD5,0df235703baaaafc7477d374e4051567*%
M02*
