%TF.GenerationSoftware,Altium Limited,Altium Designer,25.3.3 (18)*%
G04 Layer_Color=8388736*
%FSLAX45Y45*%
%MOMM*%
%TF.SameCoordinates,1FB2B9E7-3E12-4CFE-8A3D-C156B5A0EB04*%
%TF.FilePolarity,Negative*%
%TF.FileFunction,Soldermask,Top*%
%TF.Part,Single*%
G01*
G75*
%TA.AperFunction,ComponentPad*%
%ADD29C,1.20000*%
%ADD30R,1.20000X1.20000*%
%TA.AperFunction,SMDPad,CuDef*%
G04:AMPARAMS|DCode=37|XSize=3.2032mm|YSize=2.2032mm|CornerRadius=0.1316mm|HoleSize=0mm|Usage=FLASHONLY|Rotation=0.000|XOffset=0mm|YOffset=0mm|HoleType=Round|Shape=RoundedRectangle|*
%AMROUNDEDRECTD37*
21,1,3.20320,1.94000,0,0,0.0*
21,1,2.94000,2.20320,0,0,0.0*
1,1,0.26320,1.47000,-0.97000*
1,1,0.26320,-1.47000,-0.97000*
1,1,0.26320,-1.47000,0.97000*
1,1,0.26320,1.47000,0.97000*
%
%ADD37ROUNDEDRECTD37*%
G04:AMPARAMS|DCode=38|XSize=2.5032mm|YSize=1.5032mm|CornerRadius=0.1276mm|HoleSize=0mm|Usage=FLASHONLY|Rotation=0.000|XOffset=0mm|YOffset=0mm|HoleType=Round|Shape=RoundedRectangle|*
%AMROUNDEDRECTD38*
21,1,2.50320,1.24800,0,0,0.0*
21,1,2.24800,1.50320,0,0,0.0*
1,1,0.25520,1.12400,-0.62400*
1,1,0.25520,-1.12400,-0.62400*
1,1,0.25520,-1.12400,0.62400*
1,1,0.25520,1.12400,0.62400*
%
%ADD38ROUNDEDRECTD38*%
G04:AMPARAMS|DCode=39|XSize=1.5032mm|YSize=2.5032mm|CornerRadius=0.1276mm|HoleSize=0mm|Usage=FLASHONLY|Rotation=0.000|XOffset=0mm|YOffset=0mm|HoleType=Round|Shape=RoundedRectangle|*
%AMROUNDEDRECTD39*
21,1,1.50320,2.24800,0,0,0.0*
21,1,1.24800,2.50320,0,0,0.0*
1,1,0.25520,0.62400,-1.12400*
1,1,0.25520,-0.62400,-1.12400*
1,1,0.25520,-0.62400,1.12400*
1,1,0.25520,0.62400,1.12400*
%
%ADD39ROUNDEDRECTD39*%
%ADD40C,1.70320*%
G04:AMPARAMS|DCode=41|XSize=1.2032mm|YSize=1.6232mm|CornerRadius=0.2266mm|HoleSize=0mm|Usage=FLASHONLY|Rotation=180.000|XOffset=0mm|YOffset=0mm|HoleType=Round|Shape=RoundedRectangle|*
%AMROUNDEDRECTD41*
21,1,1.20320,1.17000,0,0,180.0*
21,1,0.75000,1.62320,0,0,180.0*
1,1,0.45320,-0.37500,0.58500*
1,1,0.45320,0.37500,0.58500*
1,1,0.45320,0.37500,-0.58500*
1,1,0.45320,-0.37500,-0.58500*
%
%ADD41ROUNDEDRECTD41*%
G04:AMPARAMS|DCode=42|XSize=1.2032mm|YSize=1.6232mm|CornerRadius=0.2266mm|HoleSize=0mm|Usage=FLASHONLY|Rotation=270.000|XOffset=0mm|YOffset=0mm|HoleType=Round|Shape=RoundedRectangle|*
%AMROUNDEDRECTD42*
21,1,1.20320,1.17000,0,0,270.0*
21,1,0.75000,1.62320,0,0,270.0*
1,1,0.45320,-0.58500,-0.37500*
1,1,0.45320,-0.58500,0.37500*
1,1,0.45320,0.58500,0.37500*
1,1,0.45320,0.58500,-0.37500*
%
%ADD42ROUNDEDRECTD42*%
%ADD43R,1.52400X0.76200*%
%ADD44C,0.75000*%
%ADD45C,0.70000*%
%ADD46C,0.56000*%
%ADD47R,1.70320X1.50320*%
%ADD48R,0.50320X1.27820*%
%ADD49R,1.50320X1.70320*%
%ADD50C,18.00320*%
%ADD51R,5.30320X2.70320*%
%TA.AperFunction,ComponentPad*%
%ADD52C,1.66000*%
%TA.AperFunction,ViaPad*%
%ADD53C,0.90320*%
D29*
X2806700Y1650700D02*
D03*
D30*
Y2413300D02*
D03*
D37*
X382800Y2235200D02*
D03*
Y1981200D02*
D03*
Y1727200D02*
D03*
Y1473200D02*
D03*
Y1219200D02*
D03*
Y965200D02*
D03*
Y711200D02*
D03*
X2082800D02*
D03*
Y965200D02*
D03*
Y1219200D02*
D03*
Y1473200D02*
D03*
Y1727200D02*
D03*
Y1981200D02*
D03*
Y2235200D02*
D03*
D38*
X782800Y1503200D02*
D03*
Y1693200D02*
D03*
D39*
X1612800Y548200D02*
D03*
X1802800D02*
D03*
D40*
X1105800Y2058200D02*
D03*
Y2312200D02*
D03*
X1359800Y2058200D02*
D03*
Y2312200D02*
D03*
D41*
X3725700Y1549400D02*
D03*
X3538700D02*
D03*
X3284700Y2006600D02*
D03*
X3471700D02*
D03*
X3284700Y2235200D02*
D03*
X3471700D02*
D03*
X2570000D02*
D03*
X2383000D02*
D03*
X3614900Y1206500D02*
D03*
X3801900D02*
D03*
D42*
X3949700Y1782600D02*
D03*
Y1595600D02*
D03*
X3302000Y1287300D02*
D03*
Y1100300D02*
D03*
D43*
X3837940Y566420D02*
D03*
Y660400D02*
D03*
Y754380D02*
D03*
X3578860D02*
D03*
Y566420D02*
D03*
D44*
X2494300Y820800D02*
D03*
X2687300D02*
D03*
D45*
X2590800D02*
D03*
D46*
X2489300Y710800D02*
D03*
Y546800D02*
D03*
X2692300D02*
D03*
Y710800D02*
D03*
D47*
X2959100Y730000D02*
D03*
Y540000D02*
D03*
X3708400Y2190500D02*
D03*
Y2000500D02*
D03*
X3289300Y730000D02*
D03*
Y540000D02*
D03*
D48*
X3025000Y1446400D02*
D03*
X3075000D02*
D03*
X3125000D02*
D03*
X3175000D02*
D03*
X3225000D02*
D03*
X3275000D02*
D03*
X3325000D02*
D03*
Y1754000D02*
D03*
X3275000D02*
D03*
X3225000D02*
D03*
X3175000D02*
D03*
X3125000D02*
D03*
X3075000D02*
D03*
X3025000D02*
D03*
D49*
X2571500Y2501900D02*
D03*
X2381500D02*
D03*
X2889500Y1257300D02*
D03*
X3079500D02*
D03*
Y1016000D02*
D03*
X2889500D02*
D03*
X3537200Y1778000D02*
D03*
X3727200D02*
D03*
X3828800Y977900D02*
D03*
X3638800D02*
D03*
D50*
X5029200Y1449800D02*
D03*
D51*
Y304800D02*
D03*
Y2594800D02*
D03*
D52*
X2590800Y610800D02*
D03*
D53*
X3403600Y1651000D02*
D03*
X2489200Y965200D02*
D03*
X3289300Y876300D02*
D03*
X3492500Y1346200D02*
D03*
X3175000Y1892300D02*
D03*
X5969000Y1435100D02*
D03*
X2374900Y609600D02*
D03*
X3822700Y1435100D02*
D03*
X2717800Y1257300D02*
D03*
X3469400Y2461500D02*
D03*
X2209800Y2501900D02*
D03*
X2362200Y1981200D02*
D03*
X3454400Y977900D02*
D03*
X2959100Y393700D02*
D03*
X3289300D02*
D03*
%TF.MD5,513e7a4973693f45e32075f5ee210a5d*%
M02*
